<svg width="38" height="40" viewBox="0 0 38 40" fill="none" xmlns="http://www.w3.org/2000/svg" xmlns:xlink="http://www.w3.org/1999/xlink">
<g opacity="0.4" style="isolation:isolate">
<path d="M27.904,40L9.472,40C4.105,40 -0.262,35.662 -0.262,30.329L-0.262,19.671C-0.262,14.338 4.105,10 9.472,10L27.904,10C33.271,10 37.637,14.338 37.637,19.671L37.637,30.329C37.637,35.662 33.271,40 27.904,40Z" fill="#4B4B4B"/>
</g>
<path d="M26.178,16C25.358,16 24.692,15.353 24.692,14.555L24.692,8.714C24.692,5.502 22.006,2.89 18.706,2.89C17.186,2.89 15.591,3.483 14.456,4.576C13.319,5.672 12.689,7.13 12.683,8.687L12.683,14.555C12.683,15.353 12.018,16 11.198,16C10.377,16 9.712,15.353 9.712,14.555L9.712,8.714C9.722,6.346 10.665,4.161 12.364,2.526C14.062,0.886 16.257,0.064 18.712,0C23.644,0 27.664,3.909 27.664,8.714L27.664,14.555C27.664,15.353 26.998,16 26.178,16Z" fill="#4B4B4B"/>
</svg>
