<svg width="34" height="22" viewBox="0 0 34 22" fill="none" xmlns="http://www.w3.org/2000/svg" xmlns:xlink="http://www.w3.org/1999/xlink">
<path d="M27.246,1.232C27.2,1.464 27.2,1.742 27.2,2.3L27.2,17.7C27.2,18.258 27.2,18.536 27.246,18.768C27.435,19.72 28.18,20.465 29.132,20.654C29.364,20.7 29.642,20.7 30.2,20.7C30.758,20.7 31.036,20.7 31.268,20.654C32.22,20.465 32.964,19.72 33.154,18.768C33.2,18.536 33.2,18.258 33.2,17.7L33.2,2.3C33.2,1.742 33.2,1.464 33.154,1.232C32.964,0.28 32.22,-0.465 31.268,-0.654C31.036,-0.7 30.758,-0.7 30.2,-0.7C29.642,-0.7 29.364,-0.7 29.132,-0.654C28.18,-0.465 27.435,0.28 27.246,1.232ZM17.8,7.1C17.8,6.542 17.8,6.264 17.846,6.032C18.035,5.08 18.78,4.335 19.732,4.146C19.964,4.1 20.242,4.1 20.8,4.1C21.358,4.1 21.636,4.1 21.868,4.146C22.82,4.335 23.564,5.08 23.754,6.032C23.8,6.264 23.8,6.542 23.8,7.1L23.8,17.7C23.8,18.258 23.8,18.536 23.754,18.768C23.564,19.72 22.82,20.465 21.868,20.654C21.636,20.7 21.358,20.7 20.8,20.7C20.242,20.7 19.964,20.7 19.732,20.654C18.78,20.465 18.035,19.72 17.846,18.768C17.8,18.536 17.8,18.258 17.8,17.7L17.8,7.1ZM8.646,10.632C8.6,10.864 8.6,11.142 8.6,11.7L8.6,17.7C8.6,18.258 8.6,18.536 8.646,18.768C8.835,19.72 9.58,20.465 10.532,20.654C10.764,20.7 11.042,20.7 11.6,20.7C12.158,20.7 12.436,20.7 12.668,20.654C13.62,20.465 14.364,19.72 14.554,18.768C14.6,18.536 14.6,18.258 14.6,17.7L14.6,11.7C14.6,11.142 14.6,10.864 14.554,10.632C14.364,9.68 13.62,8.935 12.668,8.746C12.436,8.7 12.158,8.7 11.6,8.7C11.042,8.7 10.764,8.7 10.532,8.746C9.58,8.935 8.835,9.68 8.646,10.632ZM-0.954,14.632C-1,14.864 -1,15.142 -1,15.7L-1,17.7C-1,18.258 -1,18.536 -0.954,18.768C-0.765,19.72 -0.02,20.465 0.932,20.654C1.164,20.7 1.442,20.7 2,20.7C2.558,20.7 2.836,20.7 3.068,20.654C4.02,20.465 4.764,19.72 4.954,18.768C5,18.536 5,18.258 5,17.7L5,15.7C5,15.142 5,14.864 4.954,14.632C4.764,13.68 4.02,12.935 3.068,12.746C2.836,12.7 2.558,12.7 2,12.7C1.442,12.7 1.164,12.7 0.932,12.746C-0.02,12.935 -0.765,13.68 -0.954,14.632Z" clip-rule="evenodd" fill-rule="evenodd" fill="#000000"/>
</svg>
