<svg width="42" height="40" viewBox="0 0 42 40" fill="none" xmlns="http://www.w3.org/2000/svg" xmlns:xlink="http://www.w3.org/1999/xlink">
<path d="M1.744,19.197L0.315,19.654L0.316,19.655L1.744,19.197ZM9.14,2.573L9.6,4L9.6,4L9.14,2.573ZM20,4.397L19.098,5.595C19.638,6.002 20.383,5.997 20.917,5.583L20,4.397ZM30.84,2.573L31.3,1.145L31.298,1.144L30.84,2.573ZM38.254,19.197L36.825,18.739L36.823,18.747L38.254,19.197ZM20,37.997L19.283,39.314C19.731,39.558 20.273,39.557 20.721,39.312L20,37.997ZM3.172,18.739C1.2,12.582 3.578,5.94 9.6,4L8.68,1.145C0.634,3.737 -2.005,12.411 0.315,19.654L3.172,18.739ZM9.6,4C12.834,2.957 16.41,3.573 19.098,5.595L20.901,3.198C17.438,0.592 12.846,-0.2 8.679,1.145L9.6,4ZM20.917,5.583C23.429,3.641 27.147,2.963 30.381,4.001L31.298,1.144C27.14,-0.19 22.39,0.652 19.082,3.21L20.917,5.583ZM30.38,4C36.405,5.941 38.794,12.586 36.825,18.739L39.682,19.654C42.001,12.408 39.343,3.736 31.3,1.145L30.38,4ZM36.823,18.747C35.291,23.618 31.022,28.085 26.928,31.416C24.908,33.058 22.987,34.38 21.571,35.291C20.864,35.746 20.285,36.097 19.885,36.332C19.685,36.45 19.53,36.539 19.427,36.598C19.376,36.627 19.337,36.649 19.312,36.663C19.299,36.67 19.29,36.675 19.285,36.678C19.282,36.68 19.28,36.681 19.279,36.681C19.278,36.682 19.278,36.682 19.278,36.682C19.278,36.682 19.278,36.682 19.278,36.682C19.278,36.682 19.278,36.681 20,37.997C20.721,39.312 20.721,39.312 20.722,39.311C20.722,39.311 20.722,39.311 20.723,39.311C20.724,39.31 20.725,39.31 20.726,39.309C20.729,39.308 20.732,39.306 20.737,39.303C20.745,39.298 20.758,39.292 20.773,39.283C20.805,39.265 20.85,39.24 20.909,39.206C21.026,39.14 21.195,39.043 21.409,38.916C21.838,38.663 22.45,38.292 23.194,37.814C24.678,36.859 26.694,35.473 28.821,33.743C33.018,30.329 37.877,25.395 39.685,19.647L36.823,18.747ZM20,37.997C20.717,36.679 20.717,36.679 20.717,36.679C20.717,36.679 20.717,36.679 20.717,36.679C20.717,36.679 20.717,36.679 20.716,36.679C20.715,36.678 20.714,36.677 20.711,36.676C20.705,36.673 20.696,36.668 20.684,36.661C20.659,36.647 20.621,36.626 20.57,36.597C20.467,36.539 20.314,36.452 20.115,36.335C19.719,36.103 19.144,35.757 18.441,35.307C17.034,34.406 15.124,33.096 13.112,31.461C9.035,28.15 4.76,23.68 3.172,18.738L0.316,19.655C2.18,25.457 7.032,30.387 11.22,33.79C13.341,35.512 15.347,36.888 16.824,37.833C17.563,38.307 18.172,38.673 18.598,38.924C18.812,39.049 18.98,39.145 19.096,39.21C19.154,39.243 19.199,39.268 19.23,39.285C19.246,39.294 19.258,39.301 19.267,39.306C19.272,39.308 19.275,39.31 19.278,39.311C19.279,39.312 19.28,39.313 19.281,39.313C19.281,39.313 19.282,39.314 19.282,39.314C19.282,39.314 19.283,39.314 20,37.997Z" fill="#000000"/>
<path d="M28.462,7.973C27.673,7.718 26.828,8.15 26.573,8.938C26.318,9.727 26.75,10.572 27.538,10.827L28.462,7.973ZM30.339,14.365C30.406,15.191 31.13,15.806 31.955,15.739C32.781,15.672 33.396,14.948 33.329,14.123L30.339,14.365ZM27.538,10.827C29.102,11.333 30.206,12.728 30.339,14.365L33.329,14.123C33.098,11.276 31.178,8.851 28.462,7.973L27.538,10.827Z" fill="#000000"/>
</svg>
