<svg width="40" height="40" viewBox="0 0 40 40" fill="none" xmlns="http://www.w3.org/2000/svg" xmlns:xlink="http://www.w3.org/1999/xlink">
<line x1="26.667" y1="9.333" x2="36.667" y2="9.333" stroke="#FFFFFF" stroke-width="1.5" stroke-miterlimit="10" stroke-linecap="round" stroke-linejoin="round"/>
<line x1="3.333" y1="9.333" x2="10" y2="9.333" stroke="#FFFFFF" stroke-width="1.5" stroke-miterlimit="10" stroke-linecap="round" stroke-linejoin="round"/>
<path d="M21,10.833C21,13.227 19.06,15.167 16.667,15.167L16.667,18.167C20.717,18.167 24,14.883 24,10.833L21,10.833ZM16.667,15.167C14.273,15.167 12.333,13.227 12.333,10.833L9.333,10.833C9.333,14.883 12.617,18.167 16.667,18.167L16.667,15.167ZM12.333,10.833C12.333,8.44 14.273,6.5 16.667,6.5L16.667,3.5C12.617,3.5 9.333,6.783 9.333,10.833L12.333,10.833ZM16.667,6.5C19.06,6.5 21,8.44 21,10.833L24,10.833C24,6.783 20.717,3.5 16.667,3.5L16.667,6.5Z" fill="#FFFFFF"/>
<line x1="30" y1="27.667" x2="36.667" y2="27.667" stroke="#FFFFFF" stroke-width="1.5" stroke-miterlimit="10" stroke-linecap="round" stroke-linejoin="round"/>
<line x1="3.333" y1="27.667" x2="13.333" y2="27.667" stroke="#FFFFFF" stroke-width="1.5" stroke-miterlimit="10" stroke-linecap="round" stroke-linejoin="round"/>
<path d="M27.667,29.167C27.667,31.56 25.727,33.5 23.333,33.5L23.333,36.5C27.383,36.5 30.667,33.217 30.667,29.167L27.667,29.167ZM23.333,33.5C20.94,33.5 19,31.56 19,29.167L16,29.167C16,33.217 19.283,36.5 23.333,36.5L23.333,33.5ZM19,29.167C19,26.773 20.94,24.833 23.333,24.833L23.333,21.833C19.283,21.833 16,25.117 16,29.167L19,29.167ZM23.333,24.833C25.727,24.833 27.667,26.773 27.667,29.167L30.667,29.167C30.667,25.117 27.383,21.833 23.333,21.833L23.333,24.833Z" fill="#FFFFFF"/>
</svg>
