<svg width="20" height="12" viewBox="0 0 20 12" fill="none" xmlns="http://www.w3.org/2000/svg" xmlns:xlink="http://www.w3.org/1999/xlink">
<path d="M19.227,1.977C19.813,1.392 19.813,0.442 19.227,-0.144C18.642,-0.73 17.692,-0.73 17.106,-0.144L19.227,1.977ZM10,9.083L8.939,10.144C9.221,10.425 9.602,10.583 10,10.583C10.398,10.583 10.779,10.425 11.061,10.144L10,9.083ZM2.894,-0.144C2.308,-0.73 1.358,-0.73 0.773,-0.144C0.187,0.442 0.187,1.392 0.773,1.977L2.894,-0.144ZM17.106,-0.144L8.939,8.023L11.061,10.144L19.227,1.977L17.106,-0.144ZM11.061,8.023L2.894,-0.144L0.773,1.977L8.939,10.144L11.061,8.023Z" fill="#FFFFFF"/>
</svg>
