<svg width="32" height="18" viewBox="0 0 32 18" fill="none" xmlns="http://www.w3.org/2000/svg" xmlns:xlink="http://www.w3.org/1999/xlink">
<path d="M31.061,2.061C31.646,1.475 31.646,0.525 31.061,-0.061C30.475,-0.646 29.525,-0.646 28.939,-0.061L31.061,2.061ZM16,15L14.939,16.061C15.525,16.646 16.475,16.646 17.061,16.061L16,15ZM3.061,-0.061C2.475,-0.646 1.525,-0.646 0.939,-0.061C0.354,0.525 0.354,1.475 0.939,2.061L3.061,-0.061ZM28.939,-0.061L14.939,13.939L17.061,16.061L31.061,2.061L28.939,-0.061ZM17.061,13.939L3.061,-0.061L0.939,2.061L14.939,16.061L17.061,13.939Z" transform="rotate(180 16 8)" fill="#000000"/>
</svg>
