<svg width="58" height="24" viewBox="0 0 58 24" fill="none" xmlns="http://www.w3.org/2000/svg" xmlns:xlink="http://www.w3.org/1999/xlink">
<path d="M7.052,0.9C2.467,0.9 -0.8,4.035 -0.8,8.327L-0.8,8.356C-0.8,12.37 2.042,15.329 6.099,15.329C9,15.329 10.846,13.849 11.622,12.179L11.915,12.179C11.915,12.34 11.9,12.502 11.9,12.663C11.739,16.706 10.318,19.987 6.964,19.987C5.103,19.987 3.8,19.02 3.243,17.541L3.199,17.394L-0.522,17.394L-0.492,17.555C0.181,20.793 3.082,23.092 6.964,23.092C12.281,23.092 15.489,18.874 15.489,11.755L15.489,11.725C15.489,4.108 11.563,0.9 7.052,0.9ZM7.037,12.428C4.635,12.428 2.891,10.671 2.891,8.224L2.891,8.195C2.891,5.837 4.752,3.976 7.081,3.976C9.425,3.976 11.256,5.866 11.256,8.283L11.256,8.312C11.256,10.7 9.425,12.428 7.037,12.428Z" fill="#FFFFFF"/>
<path d="M21.809,8.869C23.157,8.869 24.139,7.843 24.139,6.554C24.139,5.251 23.157,4.24 21.809,4.24C20.476,4.24 19.48,5.251 19.48,6.554C19.48,7.843 20.476,8.869 21.809,8.869ZM21.809,19.738C23.157,19.738 24.139,18.727 24.139,17.423C24.139,16.12 23.157,15.109 21.809,15.109C20.476,15.109 19.48,16.12 19.48,17.423C19.48,18.727 20.476,19.738 21.809,19.738Z" fill="#FFFFFF"/>
<path d="M38.384,22.565L42.002,22.565L42.002,18.507L44.844,18.507L44.844,15.387L42.002,15.387L42.002,1.427L36.655,1.427C33.784,5.793 30.781,10.656 28.042,15.417L28.042,18.507L38.384,18.507L38.384,22.565ZM31.558,15.475L31.558,15.255C33.608,11.667 36.055,7.755 38.223,4.445L38.442,4.445L38.442,15.475L31.558,15.475Z" fill="#FFFFFF"/>
<path d="M53.273,22.565L57.053,22.565L57.053,1.427L53.288,1.427L47.766,5.309L47.766,8.869L53.024,5.148L53.273,5.148L53.273,22.565Z" fill="#FFFFFF"/>
</svg>
