<svg width="36" height="42" viewBox="0 0 36 42" fill="none" xmlns="http://www.w3.org/2000/svg" xmlns:xlink="http://www.w3.org/1999/xlink">
<path d="M36,34L36,36L0,36L0,34L4,30L4,18C4,11.8 8.06,6.34 14,4.58C14,4.38 14,4.2 14,4C14,2.939 14.421,1.922 15.172,1.172C15.922,0.421 16.939,0 18,0C19.061,0 20.078,0.421 20.828,1.172C21.579,1.922 22,2.939 22,4C22,4.2 22,4.38 22,4.58C27.94,6.34 32,11.8 32,18L32,30L36,34ZM22,38C22,39.061 21.579,40.078 20.828,40.828C20.078,41.579 19.061,42 18,42C16.939,42 15.922,41.579 15.172,40.828C14.421,40.078 14,39.061 14,38Z" fill="#B7B7B7"/>
</svg>
