<svg width="18" height="18" viewBox="0 0 18 18" fill="none" xmlns="http://www.w3.org/2000/svg" xmlns:xlink="http://www.w3.org/1999/xlink">
<path d="M9.442,1.925L10.908,4.858C11.108,5.267 11.642,5.658 12.092,5.733L14.75,6.175C16.45,6.458 16.85,7.692 15.625,8.908L13.558,10.975C13.208,11.325 13.017,12 13.125,12.483L13.717,15.042C14.183,17.067 13.108,17.85 11.317,16.792L8.825,15.317C8.375,15.05 7.633,15.05 7.175,15.317L4.683,16.792C2.9,17.85 1.817,17.058 2.283,15.042L2.875,12.483C2.983,12 2.792,11.325 2.442,10.975L0.375,8.908C-0.842,7.692 -0.45,6.458 1.25,6.175L3.908,5.733C4.35,5.658 4.883,5.267 5.083,4.858L6.55,1.925C7.35,0.333 8.65,0.333 9.442,1.925Z" fill="#FBBE21"/>
</svg>
