<svg width="42" height="40" viewBox="0 0 42 40" fill="none" xmlns="http://www.w3.org/2000/svg" xmlns:xlink="http://www.w3.org/1999/xlink">
<path d="M23.86,3.129L27.38,10.169C27.86,11.149 29.14,12.089 30.22,12.269L36.6,13.329C40.68,14.009 41.64,16.969 38.7,19.889L33.74,24.849C32.9,25.689 32.44,27.309 32.7,28.469L34.12,34.609C35.24,39.469 32.66,41.349 28.36,38.809L22.38,35.269C21.3,34.629 19.52,34.629 18.42,35.269L12.44,38.809C8.16,41.349 5.56,39.449 6.68,34.609L8.1,28.469C8.36,27.309 7.9,25.689 7.06,24.849L2.1,19.889C-0.82,16.969 0.12,14.009 4.2,13.329L10.58,12.269C11.64,12.089 12.92,11.149 13.4,10.169L16.92,3.129C18.84,-0.691 21.96,-0.691 23.86,3.129Z" fill="#E27D19"/>
</svg>
