<svg width="30" height="24" viewBox="0 0 30 24" fill="none" xmlns="http://www.w3.org/2000/svg" xmlns:xlink="http://www.w3.org/1999/xlink">
<path d="M14.601,5.533C19.07,5.533 23.368,7.25 26.606,10.329C26.85,10.567 27.24,10.564 27.48,10.322L29.812,7.97C29.933,7.847 30.001,7.681 30,7.509C29.999,7.336 29.929,7.171 29.806,7.05C21.306,-1.097 7.895,-1.097 -0.606,7.05C-0.729,7.171 -0.799,7.336 -0.8,7.509C-0.801,7.681 -0.733,7.847 -0.612,7.97L1.72,10.322C1.96,10.564 2.35,10.567 2.594,10.329C5.833,7.25 10.132,5.533 14.601,5.533L14.601,5.533ZM14.601,13.188C17.056,13.187 19.424,14.1 21.244,15.748C21.49,15.982 21.878,15.977 22.118,15.737L24.446,13.384C24.569,13.26 24.637,13.093 24.635,12.919C24.634,12.745 24.562,12.579 24.437,12.458C18.895,7.303 10.312,7.303 4.769,12.458C4.644,12.579 4.573,12.745 4.571,12.919C4.569,13.093 4.638,13.261 4.761,13.384L7.089,15.737C7.329,15.977 7.716,15.982 7.963,15.748C9.781,14.101 12.147,13.189 14.601,13.188L14.601,13.188ZM19.076,18.803C19.2,18.68 19.269,18.512 19.265,18.338C19.262,18.163 19.187,17.998 19.057,17.881C16.485,15.705 12.717,15.705 10.145,17.881C10.015,17.998 9.94,18.163 9.936,18.338C9.932,18.512 10.001,18.68 10.125,18.803L14.154,22.868C14.272,22.987 14.433,23.054 14.601,23.054C14.769,23.054 14.93,22.987 15.048,22.868L19.076,18.803Z" clip-rule="evenodd" fill-rule="evenodd" fill="#FFFFFF"/>
</svg>
